<?xml version="1.0" encoding="utf-8"?>
<svg xmlns="http://www.w3.org/2000/svg" version="1.1" xmlns:xlink="http://www.w3.org/1999/xlink" width="2000" height="1000">

<line x1="225" y1="85" x2="175" y2="170" stroke="black" />
<circle cx="225" cy="85" r="3" fill="none" stroke="black" stroke-width="5" />
<line x1="725" y1="85" x2="675" y2="170" stroke="black" />
<circle cx="725" cy="85" r="3" fill="none" stroke="black" stroke-width="5" />
<circle cx="175" cy="170" r="3" fill="none" stroke="black" stroke-width="5" />
<text x="220" y="80" fill="red" >0</text>
<text x="170" y="165" fill="red" >1</text>
<text x="195" y="122.5" fill="green" >0</text>
<line x1="225" y1="85" x2="275" y2="170" stroke="black" />
<circle cx="225" cy="85" r="3" fill="none" stroke="black" stroke-width="5" />
<line x1="725" y1="85" x2="775" y2="170" stroke="black" />
<circle cx="725" cy="85" r="3" fill="none" stroke="black" stroke-width="5" />
<circle cx="275" cy="170" r="3" fill="none" stroke="black" stroke-width="5" />
<text x="220" y="80" fill="red" >0</text>
<text x="270" y="165" fill="red" >2</text>
<text x="245" y="122.5" fill="green" >1</text>
<line x1="175" y1="170" x2="275" y2="170" stroke="black" />
<circle cx="175" cy="170" r="3" fill="none" stroke="black" stroke-width="5" />
<line x1="675" y1="170" x2="775" y2="170" stroke="black" />
<circle cx="675" cy="170" r="3" fill="none" stroke="black" stroke-width="5" />
<circle cx="275" cy="170" r="3" fill="none" stroke="black" stroke-width="5" />
<text x="170" y="165" fill="red" >1</text>
<text x="270" y="165" fill="red" >2</text>
<text x="225" y="165" fill="green" >2</text>
<line x1="175" y1="170" x2="125" y2="255" stroke="black" />
<circle cx="175" cy="170" r="3" fill="none" stroke="black" stroke-width="5" />
<line x1="675" y1="170" x2="625" y2="255" stroke="black" />
<circle cx="675" cy="170" r="3" fill="none" stroke="black" stroke-width="5" />
<circle cx="125" cy="255" r="3" fill="none" stroke="black" stroke-width="5" />
<text x="170" y="165" fill="red" >1</text>
<text x="120" y="250" fill="red" >3</text>
<text x="145" y="207.5" fill="green" >3</text>
<line x1="175" y1="170" x2="225" y2="255" stroke="black" />
<circle cx="175" cy="170" r="3" fill="none" stroke="black" stroke-width="5" />
<line x1="675" y1="170" x2="725" y2="255" stroke="black" />
<circle cx="675" cy="170" r="3" fill="none" stroke="black" stroke-width="5" />
<circle cx="225" cy="255" r="3" fill="none" stroke="black" stroke-width="5" />
<text x="170" y="165" fill="red" >1</text>
<text x="220" y="250" fill="red" >4</text>
<text x="195" y="207.5" fill="green" >4</text>
<line x1="275" y1="170" x2="225" y2="255" stroke="black" />
<circle cx="275" cy="170" r="3" fill="none" stroke="black" stroke-width="5" />
<line x1="775" y1="170" x2="725" y2="255" stroke="black" />
<circle cx="775" cy="170" r="3" fill="none" stroke="black" stroke-width="5" />
<circle cx="225" cy="255" r="3" fill="none" stroke="black" stroke-width="5" />
<text x="270" y="165" fill="red" >2</text>
<text x="220" y="250" fill="red" >4</text>
<text x="245" y="207.5" fill="green" >5</text>
<line x1="275" y1="170" x2="325" y2="255" stroke="black" />
<circle cx="275" cy="170" r="3" fill="none" stroke="black" stroke-width="5" />
<line x1="775" y1="170" x2="825" y2="255" stroke="black" />
<circle cx="775" cy="170" r="3" fill="none" stroke="black" stroke-width="5" />
<circle cx="325" cy="255" r="3" fill="none" stroke="black" stroke-width="5" />
<text x="270" y="165" fill="red" >2</text>
<text x="320" y="250" fill="red" >5</text>
<text x="295" y="207.5" fill="green" >6</text>
<line x1="125" y1="255" x2="225" y2="255" stroke="black" />
<circle cx="125" cy="255" r="3" fill="none" stroke="black" stroke-width="5" />
<line x1="625" y1="255" x2="725" y2="255" stroke="black" />
<circle cx="625" cy="255" r="3" fill="none" stroke="black" stroke-width="5" />
<circle cx="225" cy="255" r="3" fill="none" stroke="black" stroke-width="5" />
<text x="120" y="250" fill="red" >3</text>
<text x="220" y="250" fill="red" >4</text>
<text x="175" y="250" fill="green" >7</text>
<line x1="225" y1="255" x2="325" y2="255" stroke="black" />
<circle cx="225" cy="255" r="3" fill="none" stroke="black" stroke-width="5" />
<line x1="725" y1="255" x2="825" y2="255" stroke="black" />
<circle cx="725" cy="255" r="3" fill="none" stroke="black" stroke-width="5" />
<circle cx="325" cy="255" r="3" fill="none" stroke="black" stroke-width="5" />
<text x="220" y="250" fill="red" >4</text>
<text x="320" y="250" fill="red" >5</text>
<text x="275" y="250" fill="green" >8</text>
<line x1="125" y1="255" x2="75" y2="340" stroke="black" />
<circle cx="125" cy="255" r="3" fill="none" stroke="black" stroke-width="5" />
<line x1="625" y1="255" x2="575" y2="340" stroke="black" />
<circle cx="625" cy="255" r="3" fill="none" stroke="black" stroke-width="5" />
<circle cx="75" cy="340" r="3" fill="none" stroke="black" stroke-width="5" />
<text x="120" y="250" fill="red" >3</text>
<text x="70" y="335" fill="red" >6</text>
<text x="95" y="292.5" fill="green" >9</text>
<line x1="125" y1="255" x2="175" y2="340" stroke="black" />
<circle cx="125" cy="255" r="3" fill="none" stroke="black" stroke-width="5" />
<line x1="625" y1="255" x2="675" y2="340" stroke="black" />
<circle cx="625" cy="255" r="3" fill="none" stroke="black" stroke-width="5" />
<circle cx="175" cy="340" r="3" fill="none" stroke="black" stroke-width="5" />
<text x="120" y="250" fill="red" >3</text>
<text x="170" y="335" fill="red" >7</text>
<text x="145" y="292.5" fill="green" >10</text>
<line x1="225" y1="255" x2="175" y2="340" stroke="black" />
<circle cx="225" cy="255" r="3" fill="none" stroke="black" stroke-width="5" />
<line x1="725" y1="255" x2="675" y2="340" stroke="black" />
<circle cx="725" cy="255" r="3" fill="none" stroke="black" stroke-width="5" />
<circle cx="175" cy="340" r="3" fill="none" stroke="black" stroke-width="5" />
<text x="220" y="250" fill="red" >4</text>
<text x="170" y="335" fill="red" >7</text>
<text x="195" y="292.5" fill="green" >11</text>
<line x1="225" y1="255" x2="275" y2="340" stroke="black" />
<circle cx="225" cy="255" r="3" fill="none" stroke="black" stroke-width="5" />
<line x1="725" y1="255" x2="775" y2="340" stroke="black" />
<circle cx="725" cy="255" r="3" fill="none" stroke="black" stroke-width="5" />
<circle cx="275" cy="340" r="3" fill="none" stroke="black" stroke-width="5" />
<text x="220" y="250" fill="red" >4</text>
<text x="270" y="335" fill="red" >8</text>
<text x="245" y="292.5" fill="green" >12</text>
<line x1="325" y1="255" x2="275" y2="340" stroke="black" />
<circle cx="325" cy="255" r="3" fill="none" stroke="black" stroke-width="5" />
<line x1="825" y1="255" x2="775" y2="340" stroke="black" />
<circle cx="825" cy="255" r="3" fill="none" stroke="black" stroke-width="5" />
<circle cx="275" cy="340" r="3" fill="none" stroke="black" stroke-width="5" />
<text x="320" y="250" fill="red" >5</text>
<text x="270" y="335" fill="red" >8</text>
<text x="295" y="292.5" fill="green" >13</text>
<line x1="325" y1="255" x2="375" y2="340" stroke="black" />
<circle cx="325" cy="255" r="3" fill="none" stroke="black" stroke-width="5" />
<line x1="825" y1="255" x2="875" y2="340" stroke="black" />
<circle cx="825" cy="255" r="3" fill="none" stroke="black" stroke-width="5" />
<circle cx="375" cy="340" r="3" fill="none" stroke="black" stroke-width="5" />
<text x="320" y="250" fill="red" >5</text>
<text x="370" y="335" fill="red" >9</text>
<text x="345" y="292.5" fill="green" >14</text>
<line x1="75" y1="340" x2="175" y2="340" stroke="black" />
<circle cx="75" cy="340" r="3" fill="none" stroke="black" stroke-width="5" />
<line x1="575" y1="340" x2="675" y2="340" stroke="black" />
<circle cx="575" cy="340" r="3" fill="none" stroke="black" stroke-width="5" />
<circle cx="175" cy="340" r="3" fill="none" stroke="black" stroke-width="5" />
<text x="70" y="335" fill="red" >6</text>
<text x="170" y="335" fill="red" >7</text>
<text x="125" y="335" fill="green" >15</text>
<line x1="175" y1="340" x2="275" y2="340" stroke="black" />
<circle cx="175" cy="340" r="3" fill="none" stroke="black" stroke-width="5" />
<line x1="675" y1="340" x2="775" y2="340" stroke="black" />
<circle cx="675" cy="340" r="3" fill="none" stroke="black" stroke-width="5" />
<circle cx="275" cy="340" r="3" fill="none" stroke="black" stroke-width="5" />
<text x="170" y="335" fill="red" >7</text>
<text x="270" y="335" fill="red" >8</text>
<text x="225" y="335" fill="green" >16</text>
<line x1="275" y1="340" x2="375" y2="340" stroke="black" />
<circle cx="275" cy="340" r="3" fill="none" stroke="black" stroke-width="5" />
<line x1="775" y1="340" x2="875" y2="340" stroke="black" />
<circle cx="775" cy="340" r="3" fill="none" stroke="black" stroke-width="5" />
<circle cx="375" cy="340" r="3" fill="none" stroke="black" stroke-width="5" />
<text x="270" y="335" fill="red" >8</text>
<text x="370" y="335" fill="red" >9</text>
<text x="325" y="335" fill="green" >17</text>
<line x1="725" y1="85" x2="675" y2="170" stroke="black" />
<circle cx="725" cy="85" r="3" fill="none" stroke="black" stroke-width="5" />
<circle cx="675" cy="170" r="3" fill="none" stroke="black" stroke-width="5" />
<text x="695" y="122.5" fill="black" >6</text>
<text x="705" y="122.5" fill="black" > ; </text>
<text x="713" y="122.5" fill="black" >4</text>
<line x1="725" y1="85" x2="775" y2="170" stroke="black" />
<circle cx="725" cy="85" r="3" fill="none" stroke="black" stroke-width="5" />
<circle cx="775" cy="170" r="3" fill="none" stroke="black" stroke-width="5" />
<text x="745" y="122.5" fill="black" >9</text>
<text x="755" y="122.5" fill="black" > ; </text>
<text x="763" y="122.5" fill="black" >1</text>
<line x1="675" y1="170" x2="775" y2="170" stroke="black" />
<circle cx="675" cy="170" r="3" fill="none" stroke="black" stroke-width="5" />
<circle cx="775" cy="170" r="3" fill="none" stroke="black" stroke-width="5" />
<text x="725" y="165" fill="black" >8</text>
<text x="735" y="165" fill="black" > ; </text>
<text x="743" y="165" fill="black" >1</text>
<line x1="675" y1="170" x2="625" y2="255" stroke="black" />
<circle cx="675" cy="170" r="3" fill="none" stroke="black" stroke-width="5" />
<circle cx="625" cy="255" r="3" fill="none" stroke="black" stroke-width="5" />
<text x="645" y="207.5" fill="black" >5</text>
<text x="655" y="207.5" fill="black" > ; </text>
<text x="663" y="207.5" fill="black" >7</text>
<line x1="675" y1="170" x2="725" y2="255" stroke="black" />
<circle cx="675" cy="170" r="3" fill="none" stroke="black" stroke-width="5" />
<circle cx="725" cy="255" r="3" fill="none" stroke="black" stroke-width="5" />
<text x="695" y="207.5" fill="black" >9</text>
<text x="705" y="207.5" fill="black" > ; </text>
<text x="713" y="207.5" fill="black" >6</text>
<line x1="775" y1="170" x2="725" y2="255" stroke="black" />
<circle cx="775" cy="170" r="3" fill="none" stroke="black" stroke-width="5" />
<circle cx="725" cy="255" r="3" fill="none" stroke="black" stroke-width="5" />
<text x="745" y="207.5" fill="black" >2</text>
<text x="755" y="207.5" fill="black" > ; </text>
<text x="763" y="207.5" fill="black" >1</text>
<line x1="775" y1="170" x2="825" y2="255" stroke="black" />
<circle cx="775" cy="170" r="3" fill="none" stroke="black" stroke-width="5" />
<circle cx="825" cy="255" r="3" fill="none" stroke="black" stroke-width="5" />
<text x="795" y="207.5" fill="black" >4</text>
<text x="805" y="207.5" fill="black" > ; </text>
<text x="813" y="207.5" fill="black" >5</text>
<line x1="625" y1="255" x2="725" y2="255" stroke="black" />
<circle cx="625" cy="255" r="3" fill="none" stroke="black" stroke-width="5" />
<circle cx="725" cy="255" r="3" fill="none" stroke="black" stroke-width="5" />
<text x="675" y="250" fill="black" >1</text>
<text x="685" y="250" fill="black" > ; </text>
<text x="693" y="250" fill="black" >8</text>
<line x1="725" y1="255" x2="825" y2="255" stroke="black" />
<circle cx="725" cy="255" r="3" fill="none" stroke="black" stroke-width="5" />
<circle cx="825" cy="255" r="3" fill="none" stroke="black" stroke-width="5" />
<text x="775" y="250" fill="black" >8</text>
<text x="785" y="250" fill="black" > ; </text>
<text x="793" y="250" fill="black" >7</text>
<line x1="625" y1="255" x2="575" y2="340" stroke="black" />
<circle cx="625" cy="255" r="3" fill="none" stroke="black" stroke-width="5" />
<circle cx="575" cy="340" r="3" fill="none" stroke="black" stroke-width="5" />
<text x="595" y="292.5" fill="black" >3</text>
<text x="605" y="292.5" fill="black" > ; </text>
<text x="613" y="292.5" fill="black" >6</text>
<line x1="625" y1="255" x2="675" y2="340" stroke="black" />
<circle cx="625" cy="255" r="3" fill="none" stroke="black" stroke-width="5" />
<circle cx="675" cy="340" r="3" fill="none" stroke="black" stroke-width="5" />
<text x="645" y="292.5" fill="black" >9</text>
<text x="655" y="292.5" fill="black" > ; </text>
<text x="663" y="292.5" fill="black" >9</text>
<line x1="725" y1="255" x2="675" y2="340" stroke="black" />
<circle cx="725" cy="255" r="3" fill="none" stroke="black" stroke-width="5" />
<circle cx="675" cy="340" r="3" fill="none" stroke="black" stroke-width="5" />
<text x="695" y="292.5" fill="black" >3</text>
<text x="705" y="292.5" fill="black" > ; </text>
<text x="713" y="292.5" fill="black" >6</text>
<line x1="725" y1="255" x2="775" y2="340" stroke="black" />
<circle cx="725" cy="255" r="3" fill="none" stroke="black" stroke-width="5" />
<circle cx="775" cy="340" r="3" fill="none" stroke="black" stroke-width="5" />
<text x="745" y="292.5" fill="black" >8</text>
<text x="755" y="292.5" fill="black" > ; </text>
<text x="763" y="292.5" fill="black" >3</text>
<line x1="825" y1="255" x2="775" y2="340" stroke="black" />
<circle cx="825" cy="255" r="3" fill="none" stroke="black" stroke-width="5" />
<circle cx="775" cy="340" r="3" fill="none" stroke="black" stroke-width="5" />
<text x="795" y="292.5" fill="black" >7</text>
<text x="805" y="292.5" fill="black" > ; </text>
<text x="813" y="292.5" fill="black" >1</text>
<line x1="825" y1="255" x2="875" y2="340" stroke="black" />
<circle cx="825" cy="255" r="3" fill="none" stroke="black" stroke-width="5" />
<circle cx="875" cy="340" r="3" fill="none" stroke="black" stroke-width="5" />
<text x="845" y="292.5" fill="black" >8</text>
<text x="855" y="292.5" fill="black" > ; </text>
<text x="863" y="292.5" fill="black" >3</text>
<line x1="575" y1="340" x2="675" y2="340" stroke="black" />
<circle cx="575" cy="340" r="3" fill="none" stroke="black" stroke-width="5" />
<circle cx="675" cy="340" r="3" fill="none" stroke="black" stroke-width="5" />
<text x="625" y="335" fill="black" >6</text>
<text x="635" y="335" fill="black" > ; </text>
<text x="643" y="335" fill="black" >1</text>
<line x1="675" y1="340" x2="775" y2="340" stroke="black" />
<circle cx="675" cy="340" r="3" fill="none" stroke="black" stroke-width="5" />
<circle cx="775" cy="340" r="3" fill="none" stroke="black" stroke-width="5" />
<text x="725" y="335" fill="black" >8</text>
<text x="735" y="335" fill="black" > ; </text>
<text x="743" y="335" fill="black" >7</text>
<line x1="775" y1="340" x2="875" y2="340" stroke="black" />
<circle cx="775" cy="340" r="3" fill="none" stroke="black" stroke-width="5" />
<circle cx="875" cy="340" r="3" fill="none" stroke="black" stroke-width="5" />
<text x="825" y="335" fill="black" >9</text>
<text x="835" y="335" fill="black" > ; </text>
<text x="843" y="335" fill="black" >5</text>


</svg>
