<?xml version="1.0" encoding="utf-8"?>
<svg xmlns="http://www.w3.org/2000/svg" version="1.1" xmlns:xlink="http://www.w3.org/1999/xlink" width="2000" height="1000">

<line x1="100" y1="100" x2="200" y2="100" stroke="black" />
<circle cx="100" cy="100" r="3" fill="none" stroke="black" stroke-width="5" />
<line x1="600" y1="100" x2="700" y2="100" stroke="black" />
<circle cx="600" cy="100" r="3" fill="none" stroke="black" stroke-width="5" />
<circle cx="200" cy="100" r="3" fill="none" stroke="black" stroke-width="5" />
<text x="95" y="95" fill="red" >0</text>
<text x="195" y="95" fill="red" >1</text>
<text x="150" y="95" fill="green" >0</text>
<line x1="200" y1="100" x2="300" y2="100" stroke="black" />
<circle cx="200" cy="100" r="3" fill="none" stroke="black" stroke-width="5" />
<line x1="700" y1="100" x2="800" y2="100" stroke="black" />
<circle cx="700" cy="100" r="3" fill="none" stroke="black" stroke-width="5" />
<circle cx="300" cy="100" r="3" fill="none" stroke="black" stroke-width="5" />
<text x="195" y="95" fill="red" >1</text>
<text x="295" y="95" fill="red" >2</text>
<text x="250" y="95" fill="green" >1</text>
<line x1="300" y1="100" x2="400" y2="100" stroke="black" />
<circle cx="300" cy="100" r="3" fill="none" stroke="black" stroke-width="5" />
<line x1="800" y1="100" x2="900" y2="100" stroke="black" />
<circle cx="800" cy="100" r="3" fill="none" stroke="black" stroke-width="5" />
<circle cx="400" cy="100" r="3" fill="none" stroke="black" stroke-width="5" />
<text x="295" y="95" fill="red" >2</text>
<text x="395" y="95" fill="red" >3</text>
<text x="350" y="95" fill="green" >2</text>
<line x1="100" y1="200" x2="200" y2="200" stroke="black" />
<circle cx="100" cy="200" r="3" fill="none" stroke="black" stroke-width="5" />
<line x1="600" y1="200" x2="700" y2="200" stroke="black" />
<circle cx="600" cy="200" r="3" fill="none" stroke="black" stroke-width="5" />
<circle cx="200" cy="200" r="3" fill="none" stroke="black" stroke-width="5" />
<text x="95" y="195" fill="red" >4</text>
<text x="195" y="195" fill="red" >5</text>
<text x="150" y="195" fill="green" >3</text>
<line x1="200" y1="200" x2="300" y2="200" stroke="black" />
<circle cx="200" cy="200" r="3" fill="none" stroke="black" stroke-width="5" />
<line x1="700" y1="200" x2="800" y2="200" stroke="black" />
<circle cx="700" cy="200" r="3" fill="none" stroke="black" stroke-width="5" />
<circle cx="300" cy="200" r="3" fill="none" stroke="black" stroke-width="5" />
<text x="195" y="195" fill="red" >5</text>
<text x="295" y="195" fill="red" >6</text>
<text x="250" y="195" fill="green" >4</text>
<line x1="300" y1="200" x2="400" y2="200" stroke="black" />
<circle cx="300" cy="200" r="3" fill="none" stroke="black" stroke-width="5" />
<line x1="800" y1="200" x2="900" y2="200" stroke="black" />
<circle cx="800" cy="200" r="3" fill="none" stroke="black" stroke-width="5" />
<circle cx="400" cy="200" r="3" fill="none" stroke="black" stroke-width="5" />
<text x="295" y="195" fill="red" >6</text>
<text x="395" y="195" fill="red" >7</text>
<text x="350" y="195" fill="green" >5</text>
<line x1="100" y1="300" x2="200" y2="300" stroke="black" />
<circle cx="100" cy="300" r="3" fill="none" stroke="black" stroke-width="5" />
<line x1="600" y1="300" x2="700" y2="300" stroke="black" />
<circle cx="600" cy="300" r="3" fill="none" stroke="black" stroke-width="5" />
<circle cx="200" cy="300" r="3" fill="none" stroke="black" stroke-width="5" />
<text x="95" y="295" fill="red" >8</text>
<text x="195" y="295" fill="red" >9</text>
<text x="150" y="295" fill="green" >6</text>
<line x1="200" y1="300" x2="300" y2="300" stroke="black" />
<circle cx="200" cy="300" r="3" fill="none" stroke="black" stroke-width="5" />
<line x1="700" y1="300" x2="800" y2="300" stroke="black" />
<circle cx="700" cy="300" r="3" fill="none" stroke="black" stroke-width="5" />
<circle cx="300" cy="300" r="3" fill="none" stroke="black" stroke-width="5" />
<text x="195" y="295" fill="red" >9</text>
<text x="295" y="295" fill="red" >10</text>
<text x="250" y="295" fill="green" >7</text>
<line x1="300" y1="300" x2="400" y2="300" stroke="black" />
<circle cx="300" cy="300" r="3" fill="none" stroke="black" stroke-width="5" />
<line x1="800" y1="300" x2="900" y2="300" stroke="black" />
<circle cx="800" cy="300" r="3" fill="none" stroke="black" stroke-width="5" />
<circle cx="400" cy="300" r="3" fill="none" stroke="black" stroke-width="5" />
<text x="295" y="295" fill="red" >10</text>
<text x="395" y="295" fill="red" >11</text>
<text x="350" y="295" fill="green" >8</text>
<line x1="100" y1="400" x2="200" y2="400" stroke="black" />
<circle cx="100" cy="400" r="3" fill="none" stroke="black" stroke-width="5" />
<line x1="600" y1="400" x2="700" y2="400" stroke="black" />
<circle cx="600" cy="400" r="3" fill="none" stroke="black" stroke-width="5" />
<circle cx="200" cy="400" r="3" fill="none" stroke="black" stroke-width="5" />
<text x="95" y="395" fill="red" >12</text>
<text x="195" y="395" fill="red" >13</text>
<text x="150" y="395" fill="green" >9</text>
<line x1="200" y1="400" x2="300" y2="400" stroke="black" />
<circle cx="200" cy="400" r="3" fill="none" stroke="black" stroke-width="5" />
<line x1="700" y1="400" x2="800" y2="400" stroke="black" />
<circle cx="700" cy="400" r="3" fill="none" stroke="black" stroke-width="5" />
<circle cx="300" cy="400" r="3" fill="none" stroke="black" stroke-width="5" />
<text x="195" y="395" fill="red" >13</text>
<text x="295" y="395" fill="red" >14</text>
<text x="250" y="395" fill="green" >10</text>
<line x1="300" y1="400" x2="400" y2="400" stroke="black" />
<circle cx="300" cy="400" r="3" fill="none" stroke="black" stroke-width="5" />
<line x1="800" y1="400" x2="900" y2="400" stroke="black" />
<circle cx="800" cy="400" r="3" fill="none" stroke="black" stroke-width="5" />
<circle cx="400" cy="400" r="3" fill="none" stroke="black" stroke-width="5" />
<text x="295" y="395" fill="red" >14</text>
<text x="395" y="395" fill="red" >15</text>
<text x="350" y="395" fill="green" >11</text>
<line x1="100" y1="100" x2="100" y2="200" stroke="black" />
<circle cx="100" cy="100" r="3" fill="none" stroke="black" stroke-width="5" />
<line x1="600" y1="100" x2="600" y2="200" stroke="black" />
<circle cx="600" cy="100" r="3" fill="none" stroke="black" stroke-width="5" />
<circle cx="100" cy="200" r="3" fill="none" stroke="black" stroke-width="5" />
<text x="95" y="95" fill="red" >0</text>
<text x="95" y="195" fill="red" >4</text>
<text x="90" y="150" fill="green" >12</text>
<line x1="200" y1="100" x2="200" y2="200" stroke="black" />
<circle cx="200" cy="100" r="3" fill="none" stroke="black" stroke-width="5" />
<line x1="700" y1="100" x2="700" y2="200" stroke="black" />
<circle cx="700" cy="100" r="3" fill="none" stroke="black" stroke-width="5" />
<circle cx="200" cy="200" r="3" fill="none" stroke="black" stroke-width="5" />
<text x="195" y="95" fill="red" >1</text>
<text x="195" y="195" fill="red" >5</text>
<text x="190" y="150" fill="green" >13</text>
<line x1="300" y1="100" x2="300" y2="200" stroke="black" />
<circle cx="300" cy="100" r="3" fill="none" stroke="black" stroke-width="5" />
<line x1="800" y1="100" x2="800" y2="200" stroke="black" />
<circle cx="800" cy="100" r="3" fill="none" stroke="black" stroke-width="5" />
<circle cx="300" cy="200" r="3" fill="none" stroke="black" stroke-width="5" />
<text x="295" y="95" fill="red" >2</text>
<text x="295" y="195" fill="red" >6</text>
<text x="290" y="150" fill="green" >14</text>
<line x1="400" y1="100" x2="400" y2="200" stroke="black" />
<circle cx="400" cy="100" r="3" fill="none" stroke="black" stroke-width="5" />
<line x1="900" y1="100" x2="900" y2="200" stroke="black" />
<circle cx="900" cy="100" r="3" fill="none" stroke="black" stroke-width="5" />
<circle cx="400" cy="200" r="3" fill="none" stroke="black" stroke-width="5" />
<text x="395" y="95" fill="red" >3</text>
<text x="395" y="195" fill="red" >7</text>
<text x="390" y="150" fill="green" >15</text>
<line x1="100" y1="200" x2="100" y2="300" stroke="black" />
<circle cx="100" cy="200" r="3" fill="none" stroke="black" stroke-width="5" />
<line x1="600" y1="200" x2="600" y2="300" stroke="black" />
<circle cx="600" cy="200" r="3" fill="none" stroke="black" stroke-width="5" />
<circle cx="100" cy="300" r="3" fill="none" stroke="black" stroke-width="5" />
<text x="95" y="195" fill="red" >4</text>
<text x="95" y="295" fill="red" >8</text>
<text x="90" y="250" fill="green" >16</text>
<line x1="200" y1="200" x2="200" y2="300" stroke="black" />
<circle cx="200" cy="200" r="3" fill="none" stroke="black" stroke-width="5" />
<line x1="700" y1="200" x2="700" y2="300" stroke="black" />
<circle cx="700" cy="200" r="3" fill="none" stroke="black" stroke-width="5" />
<circle cx="200" cy="300" r="3" fill="none" stroke="black" stroke-width="5" />
<text x="195" y="195" fill="red" >5</text>
<text x="195" y="295" fill="red" >9</text>
<text x="190" y="250" fill="green" >17</text>
<line x1="300" y1="200" x2="300" y2="300" stroke="black" />
<circle cx="300" cy="200" r="3" fill="none" stroke="black" stroke-width="5" />
<line x1="800" y1="200" x2="800" y2="300" stroke="black" />
<circle cx="800" cy="200" r="3" fill="none" stroke="black" stroke-width="5" />
<circle cx="300" cy="300" r="3" fill="none" stroke="black" stroke-width="5" />
<text x="295" y="195" fill="red" >6</text>
<text x="295" y="295" fill="red" >10</text>
<text x="290" y="250" fill="green" >18</text>
<line x1="400" y1="200" x2="400" y2="300" stroke="black" />
<circle cx="400" cy="200" r="3" fill="none" stroke="black" stroke-width="5" />
<line x1="900" y1="200" x2="900" y2="300" stroke="black" />
<circle cx="900" cy="200" r="3" fill="none" stroke="black" stroke-width="5" />
<circle cx="400" cy="300" r="3" fill="none" stroke="black" stroke-width="5" />
<text x="395" y="195" fill="red" >7</text>
<text x="395" y="295" fill="red" >11</text>
<text x="390" y="250" fill="green" >19</text>
<line x1="100" y1="300" x2="100" y2="400" stroke="black" />
<circle cx="100" cy="300" r="3" fill="none" stroke="black" stroke-width="5" />
<line x1="600" y1="300" x2="600" y2="400" stroke="black" />
<circle cx="600" cy="300" r="3" fill="none" stroke="black" stroke-width="5" />
<circle cx="100" cy="400" r="3" fill="none" stroke="black" stroke-width="5" />
<text x="95" y="295" fill="red" >8</text>
<text x="95" y="395" fill="red" >12</text>
<text x="90" y="350" fill="green" >20</text>
<line x1="200" y1="300" x2="200" y2="400" stroke="black" />
<circle cx="200" cy="300" r="3" fill="none" stroke="black" stroke-width="5" />
<line x1="700" y1="300" x2="700" y2="400" stroke="black" />
<circle cx="700" cy="300" r="3" fill="none" stroke="black" stroke-width="5" />
<circle cx="200" cy="400" r="3" fill="none" stroke="black" stroke-width="5" />
<text x="195" y="295" fill="red" >9</text>
<text x="195" y="395" fill="red" >13</text>
<text x="190" y="350" fill="green" >21</text>
<line x1="300" y1="300" x2="300" y2="400" stroke="black" />
<circle cx="300" cy="300" r="3" fill="none" stroke="black" stroke-width="5" />
<line x1="800" y1="300" x2="800" y2="400" stroke="black" />
<circle cx="800" cy="300" r="3" fill="none" stroke="black" stroke-width="5" />
<circle cx="300" cy="400" r="3" fill="none" stroke="black" stroke-width="5" />
<text x="295" y="295" fill="red" >10</text>
<text x="295" y="395" fill="red" >14</text>
<text x="290" y="350" fill="green" >22</text>
<line x1="400" y1="300" x2="400" y2="400" stroke="black" />
<circle cx="400" cy="300" r="3" fill="none" stroke="black" stroke-width="5" />
<line x1="900" y1="300" x2="900" y2="400" stroke="black" />
<circle cx="900" cy="300" r="3" fill="none" stroke="black" stroke-width="5" />
<circle cx="400" cy="400" r="3" fill="none" stroke="black" stroke-width="5" />
<text x="395" y="295" fill="red" >11</text>
<text x="395" y="395" fill="red" >15</text>
<text x="390" y="350" fill="green" >23</text>
<line x1="600" y1="100" x2="700" y2="100" stroke="black" />
<circle cx="600" cy="100" r="3" fill="none" stroke="black" stroke-width="5" />
<circle cx="700" cy="100" r="3" fill="none" stroke="black" stroke-width="5" />
<text x="650" y="95" fill="black" >6</text>
<text x="660" y="95" fill="black" > ; </text>
<text x="668" y="95" fill="black" >5</text>
<line x1="700" y1="100" x2="800" y2="100" stroke="black" />
<circle cx="700" cy="100" r="3" fill="none" stroke="black" stroke-width="5" />
<circle cx="800" cy="100" r="3" fill="none" stroke="black" stroke-width="5" />
<text x="750" y="95" fill="black" >9</text>
<text x="760" y="95" fill="black" > ; </text>
<text x="768" y="95" fill="black" >8</text>
<line x1="800" y1="100" x2="900" y2="100" stroke="black" />
<circle cx="800" cy="100" r="3" fill="none" stroke="black" stroke-width="5" />
<circle cx="900" cy="100" r="3" fill="none" stroke="black" stroke-width="5" />
<text x="850" y="95" fill="black" >8</text>
<text x="860" y="95" fill="black" > ; </text>
<text x="868" y="95" fill="black" >7</text>
<line x1="600" y1="200" x2="700" y2="200" stroke="black" />
<circle cx="600" cy="200" r="3" fill="none" stroke="black" stroke-width="5" />
<circle cx="700" cy="200" r="3" fill="none" stroke="black" stroke-width="5" />
<text x="650" y="195" fill="black" >5</text>
<text x="660" y="195" fill="black" > ; </text>
<text x="668" y="195" fill="black" >6</text>
<line x1="700" y1="200" x2="800" y2="200" stroke="black" />
<circle cx="700" cy="200" r="3" fill="none" stroke="black" stroke-width="5" />
<circle cx="800" cy="200" r="3" fill="none" stroke="black" stroke-width="5" />
<text x="750" y="195" fill="black" >9</text>
<text x="760" y="195" fill="black" > ; </text>
<text x="768" y="195" fill="black" >9</text>
<line x1="800" y1="200" x2="900" y2="200" stroke="black" />
<circle cx="800" cy="200" r="3" fill="none" stroke="black" stroke-width="5" />
<circle cx="900" cy="200" r="3" fill="none" stroke="black" stroke-width="5" />
<text x="850" y="195" fill="black" >2</text>
<text x="860" y="195" fill="black" > ; </text>
<text x="868" y="195" fill="black" >6</text>
<line x1="600" y1="300" x2="700" y2="300" stroke="black" />
<circle cx="600" cy="300" r="3" fill="none" stroke="black" stroke-width="5" />
<circle cx="700" cy="300" r="3" fill="none" stroke="black" stroke-width="5" />
<text x="650" y="295" fill="black" >4</text>
<text x="660" y="295" fill="black" > ; </text>
<text x="668" y="295" fill="black" >3</text>
<line x1="700" y1="300" x2="800" y2="300" stroke="black" />
<circle cx="700" cy="300" r="3" fill="none" stroke="black" stroke-width="5" />
<circle cx="800" cy="300" r="3" fill="none" stroke="black" stroke-width="5" />
<text x="750" y="295" fill="black" >1</text>
<text x="760" y="295" fill="black" > ; </text>
<text x="768" y="295" fill="black" >1</text>
<line x1="800" y1="300" x2="900" y2="300" stroke="black" />
<circle cx="800" cy="300" r="3" fill="none" stroke="black" stroke-width="5" />
<circle cx="900" cy="300" r="3" fill="none" stroke="black" stroke-width="5" />
<text x="850" y="295" fill="black" >8</text>
<text x="860" y="295" fill="black" > ; </text>
<text x="868" y="295" fill="black" >3</text>
<line x1="600" y1="400" x2="700" y2="400" stroke="black" />
<circle cx="600" cy="400" r="3" fill="none" stroke="black" stroke-width="5" />
<circle cx="700" cy="400" r="3" fill="none" stroke="black" stroke-width="5" />
<text x="650" y="395" fill="black" >3</text>
<text x="660" y="395" fill="black" > ; </text>
<text x="668" y="395" fill="black" >1</text>
<line x1="700" y1="400" x2="800" y2="400" stroke="black" />
<circle cx="700" cy="400" r="3" fill="none" stroke="black" stroke-width="5" />
<circle cx="800" cy="400" r="3" fill="none" stroke="black" stroke-width="5" />
<text x="750" y="395" fill="black" >9</text>
<text x="760" y="395" fill="black" > ; </text>
<text x="768" y="395" fill="black" >7</text>
<line x1="800" y1="400" x2="900" y2="400" stroke="black" />
<circle cx="800" cy="400" r="3" fill="none" stroke="black" stroke-width="5" />
<circle cx="900" cy="400" r="3" fill="none" stroke="black" stroke-width="5" />
<text x="850" y="395" fill="black" >3</text>
<text x="860" y="395" fill="black" > ; </text>
<text x="868" y="395" fill="black" >5</text>
<line x1="600" y1="100" x2="600" y2="200" stroke="black" />
<circle cx="600" cy="100" r="3" fill="none" stroke="black" stroke-width="5" />
<circle cx="600" cy="200" r="3" fill="none" stroke="black" stroke-width="5" />
<text x="590" y="150" fill="black" >8</text>
<text x="600" y="150" fill="black" > ; </text>
<text x="608" y="150" fill="black" >9</text>
<line x1="700" y1="100" x2="700" y2="200" stroke="black" />
<circle cx="700" cy="100" r="3" fill="none" stroke="black" stroke-width="5" />
<circle cx="700" cy="200" r="3" fill="none" stroke="black" stroke-width="5" />
<text x="690" y="150" fill="black" >7</text>
<text x="700" y="150" fill="black" > ; </text>
<text x="708" y="150" fill="black" >2</text>
<line x1="800" y1="100" x2="800" y2="200" stroke="black" />
<circle cx="800" cy="100" r="3" fill="none" stroke="black" stroke-width="5" />
<circle cx="800" cy="200" r="3" fill="none" stroke="black" stroke-width="5" />
<text x="790" y="150" fill="black" >8</text>
<text x="800" y="150" fill="black" > ; </text>
<text x="808" y="150" fill="black" >8</text>
<line x1="900" y1="100" x2="900" y2="200" stroke="black" />
<circle cx="900" cy="100" r="3" fill="none" stroke="black" stroke-width="5" />
<circle cx="900" cy="200" r="3" fill="none" stroke="black" stroke-width="5" />
<text x="890" y="150" fill="black" >6</text>
<text x="900" y="150" fill="black" > ; </text>
<text x="908" y="150" fill="black" >4</text>
<line x1="600" y1="200" x2="600" y2="300" stroke="black" />
<circle cx="600" cy="200" r="3" fill="none" stroke="black" stroke-width="5" />
<circle cx="600" cy="300" r="3" fill="none" stroke="black" stroke-width="5" />
<text x="590" y="250" fill="black" >8</text>
<text x="600" y="250" fill="black" > ; </text>
<text x="608" y="250" fill="black" >3</text>
<line x1="700" y1="200" x2="700" y2="300" stroke="black" />
<circle cx="700" cy="200" r="3" fill="none" stroke="black" stroke-width="5" />
<circle cx="700" cy="300" r="3" fill="none" stroke="black" stroke-width="5" />
<text x="690" y="250" fill="black" >9</text>
<text x="700" y="250" fill="black" > ; </text>
<text x="708" y="250" fill="black" >7</text>
<line x1="800" y1="200" x2="800" y2="300" stroke="black" />
<circle cx="800" cy="200" r="3" fill="none" stroke="black" stroke-width="5" />
<circle cx="800" cy="300" r="3" fill="none" stroke="black" stroke-width="5" />
<text x="790" y="250" fill="black" >4</text>
<text x="800" y="250" fill="black" > ; </text>
<text x="808" y="250" fill="black" >3</text>
<line x1="900" y1="200" x2="900" y2="300" stroke="black" />
<circle cx="900" cy="200" r="3" fill="none" stroke="black" stroke-width="5" />
<circle cx="900" cy="300" r="3" fill="none" stroke="black" stroke-width="5" />
<text x="890" y="250" fill="black" >1</text>
<text x="900" y="250" fill="black" > ; </text>
<text x="908" y="250" fill="black" >4</text>
<line x1="600" y1="300" x2="600" y2="400" stroke="black" />
<circle cx="600" cy="300" r="3" fill="none" stroke="black" stroke-width="5" />
<circle cx="600" cy="400" r="3" fill="none" stroke="black" stroke-width="5" />
<text x="590" y="350" fill="black" >1</text>
<text x="600" y="350" fill="black" > ; </text>
<text x="608" y="350" fill="black" >7</text>
<line x1="700" y1="300" x2="700" y2="400" stroke="black" />
<circle cx="700" cy="300" r="3" fill="none" stroke="black" stroke-width="5" />
<circle cx="700" cy="400" r="3" fill="none" stroke="black" stroke-width="5" />
<text x="690" y="350" fill="black" >7</text>
<text x="700" y="350" fill="black" > ; </text>
<text x="708" y="350" fill="black" >3</text>
<line x1="800" y1="300" x2="800" y2="400" stroke="black" />
<circle cx="800" cy="300" r="3" fill="none" stroke="black" stroke-width="5" />
<circle cx="800" cy="400" r="3" fill="none" stroke="black" stroke-width="5" />
<text x="790" y="350" fill="black" >6</text>
<text x="800" y="350" fill="black" > ; </text>
<text x="808" y="350" fill="black" >4</text>
<line x1="900" y1="300" x2="900" y2="400" stroke="black" />
<circle cx="900" cy="300" r="3" fill="none" stroke="black" stroke-width="5" />
<circle cx="900" cy="400" r="3" fill="none" stroke="black" stroke-width="5" />
<text x="890" y="350" fill="black" >1</text>
<text x="900" y="350" fill="black" > ; </text>
<text x="908" y="350" fill="black" >8</text>
<line x1="200" y1="800" x2="300" y2="800" stroke="black" />
<circle cx="200" cy="800" r="3" fill="none" stroke="black" stroke-width="5" />
<circle cx="300" cy="800" r="3" fill="none" stroke="black" stroke-width="5" />
<text x="250" y="795" fill="black" >3</text>
<text x="250" y="805" fill="black" > ; </text>
<text x="250" y="813" fill="black" >1</text>
<line x1="400" y1="700" x2="400" y2="800" stroke="black" />
<circle cx="400" cy="700" r="3" fill="none" stroke="black" stroke-width="5" />
<circle cx="400" cy="800" r="3" fill="none" stroke="black" stroke-width="5" />
<text x="390" y="750" fill="black" >1</text>
<text x="390" y="760" fill="black" > ; </text>
<text x="390" y="768" fill="black" >1</text>
<line x1="100" y1="800" x2="100" y2="900" stroke="black" />
<circle cx="100" cy="800" r="3" fill="none" stroke="black" stroke-width="5" />
<circle cx="100" cy="900" r="3" fill="none" stroke="black" stroke-width="5" />
<text x="90" y="850" fill="black" >8</text>
<text x="90" y="860" fill="black" > ; </text>
<text x="90" y="868" fill="black" >3</text>
<line x1="400" y1="800" x2="400" y2="900" stroke="black" />
<circle cx="400" cy="800" r="3" fill="none" stroke="black" stroke-width="5" />
<circle cx="400" cy="900" r="3" fill="none" stroke="black" stroke-width="5" />
<text x="390" y="850" fill="black" >3</text>
<text x="390" y="860" fill="black" > ; </text>
<text x="390" y="868" fill="black" >5</text>
<line x1="300" y1="700" x2="400" y2="700" stroke="black" />
<circle cx="300" cy="700" r="3" fill="none" stroke="black" stroke-width="5" />
<circle cx="400" cy="700" r="3" fill="none" stroke="black" stroke-width="5" />
<text x="350" y="695" fill="black" >3</text>
<text x="350" y="705" fill="black" > ; </text>
<text x="350" y="713" fill="black" >5</text>
<line x1="100" y1="900" x2="200" y2="900" stroke="black" />
<circle cx="100" cy="900" r="3" fill="none" stroke="black" stroke-width="5" />
<circle cx="200" cy="900" r="3" fill="none" stroke="black" stroke-width="5" />
<text x="150" y="895" fill="black" >8</text>
<text x="150" y="905" fill="black" > ; </text>
<text x="150" y="913" fill="black" >9</text>
<line x1="300" y1="900" x2="400" y2="900" stroke="black" />
<circle cx="300" cy="900" r="3" fill="none" stroke="black" stroke-width="5" />
<circle cx="400" cy="900" r="3" fill="none" stroke="black" stroke-width="5" />
<text x="350" y="895" fill="black" >8</text>
<text x="350" y="905" fill="black" > ; </text>
<text x="350" y="913" fill="black" >9</text>
<line x1="100" y1="800" x2="200" y2="800" stroke="black" />
<circle cx="100" cy="800" r="3" fill="none" stroke="black" stroke-width="5" />
<circle cx="200" cy="800" r="3" fill="none" stroke="black" stroke-width="5" />
<text x="150" y="795" fill="black" >8</text>
<text x="150" y="805" fill="black" > ; </text>
<text x="150" y="813" fill="black" >3</text>
<line x1="300" y1="700" x2="300" y2="800" stroke="black" />
<circle cx="300" cy="700" r="3" fill="none" stroke="black" stroke-width="5" />
<circle cx="300" cy="800" r="3" fill="none" stroke="black" stroke-width="5" />
<text x="290" y="750" fill="black" >8</text>
<text x="290" y="760" fill="black" > ; </text>
<text x="290" y="768" fill="black" >3</text>
<line x1="100" y1="700" x2="200" y2="700" stroke="black" />
<circle cx="100" cy="700" r="3" fill="none" stroke="black" stroke-width="5" />
<circle cx="200" cy="700" r="3" fill="none" stroke="black" stroke-width="5" />
<text x="150" y="695" fill="black" >8</text>
<text x="150" y="705" fill="black" > ; </text>
<text x="150" y="713" fill="black" >3</text>
<line x1="100" y1="600" x2="200" y2="600" stroke="black" />
<circle cx="100" cy="600" r="3" fill="none" stroke="black" stroke-width="5" />
<circle cx="200" cy="600" r="3" fill="none" stroke="black" stroke-width="5" />
<text x="150" y="595" fill="black" >6</text>
<text x="150" y="605" fill="black" > ; </text>
<text x="150" y="613" fill="black" >5</text>
<line x1="400" y1="600" x2="400" y2="700" stroke="black" />
<circle cx="400" cy="600" r="3" fill="none" stroke="black" stroke-width="5" />
<circle cx="400" cy="700" r="3" fill="none" stroke="black" stroke-width="5" />
<text x="390" y="650" fill="black" >5</text>
<text x="390" y="660" fill="black" > ; </text>
<text x="390" y="668" fill="black" >6</text>
<line x1="200" y1="600" x2="200" y2="700" stroke="black" />
<circle cx="200" cy="600" r="3" fill="none" stroke="black" stroke-width="5" />
<circle cx="200" cy="700" r="3" fill="none" stroke="black" stroke-width="5" />
<text x="190" y="650" fill="black" >9</text>
<text x="190" y="660" fill="black" > ; </text>
<text x="190" y="668" fill="black" >8</text>
<line x1="300" y1="600" x2="400" y2="600" stroke="black" />
<circle cx="300" cy="600" r="3" fill="none" stroke="black" stroke-width="5" />
<circle cx="400" cy="600" r="3" fill="none" stroke="black" stroke-width="5" />
<text x="350" y="595" fill="black" >9</text>
<text x="350" y="605" fill="black" > ; </text>
<text x="350" y="613" fill="black" >8</text>
<line x1="100" y1="700" x2="100" y2="800" stroke="black" />
<circle cx="100" cy="700" r="3" fill="none" stroke="black" stroke-width="5" />
<circle cx="100" cy="800" r="3" fill="none" stroke="black" stroke-width="5" />
<text x="90" y="750" fill="black" >9</text>
<text x="90" y="760" fill="black" > ; </text>
<text x="90" y="768" fill="black" >8</text>


</svg>
