<?xml version="1.0" encoding="utf-8"?>
<svg xmlns="http://www.w3.org/2000/svg" version="1.1" xmlns:xlink="http://www.w3.org/1999/xlink" width="2000" height="1000">

<line x1="100" y1="100" x2="200" y2="100" stroke="black" />
<circle cx="100" cy="100" r="3" fill="none" stroke="black" stroke-width="5" />
<circle cx="200" cy="100" r="3" fill="none" stroke="black" stroke-width="5" />
<text x="95" y="95" fill="red" >0</text>
<text x="195" y="95" fill="red" >1</text>
<text x="150" y="95" fill="green" >0</text>
<line x1="100" y1="100" x2="100" y2="200" stroke="black" />
<circle cx="100" cy="100" r="3" fill="none" stroke="black" stroke-width="5" />
<circle cx="100" cy="200" r="3" fill="none" stroke="black" stroke-width="5" />
<text x="95" y="95" fill="red" >0</text>
<text x="95" y="195" fill="red" >2</text>
<text x="90" y="150" fill="green" >1</text>
<line x1="200" y1="100" x2="100" y2="200" stroke="black" />
<circle cx="200" cy="100" r="3" fill="none" stroke="black" stroke-width="5" />
<circle cx="100" cy="200" r="3" fill="none" stroke="black" stroke-width="5" />
<text x="195" y="95" fill="red" >1</text>
<text x="95" y="195" fill="red" >2</text>
<text x="145" y="145" fill="green" >2</text>
<line x1="200" y1="100" x2="200" y2="200" stroke="black" />
<circle cx="200" cy="100" r="3" fill="none" stroke="black" stroke-width="5" />
<circle cx="200" cy="200" r="3" fill="none" stroke="black" stroke-width="5" />
<text x="195" y="95" fill="red" >1</text>
<text x="195" y="195" fill="red" >3</text>
<text x="190" y="150" fill="green" >3</text>
<line x1="100" y1="200" x2="200" y2="200" stroke="black" />
<circle cx="100" cy="200" r="3" fill="none" stroke="black" stroke-width="5" />
<circle cx="200" cy="200" r="3" fill="none" stroke="black" stroke-width="5" />
<text x="95" y="195" fill="red" >2</text>
<text x="195" y="195" fill="red" >3</text>
<text x="150" y="195" fill="green" >4</text>
<line x1="3.01208e-307" y1="2.20965e-307" x2="3.28325e-307" y2="-3.30966e-294" stroke="black" />
<circle cx="3.01208e-307" cy="2.20965e-307" r="3" fill="none" stroke="black" stroke-width="5" />
<circle cx="3.28325e-307" cy="-3.30966e-294" r="3" fill="none" stroke="black" stroke-width="5" />
<line x1="3.01208e-307" y1="2.20965e-307" x2="3.28325e-307" y2="-3.30966e-294" stroke="black" />
<circle cx="3.01208e-307" cy="2.20965e-307" r="3" fill="none" stroke="black" stroke-width="5" />
<circle cx="3.28325e-307" cy="-3.30966e-294" r="3" fill="none" stroke="black" stroke-width="5" />
<line x1="3.01208e-307" y1="2.20965e-307" x2="3.28325e-307" y2="-3.30966e-294" stroke="black" />
<circle cx="3.01208e-307" cy="2.20965e-307" r="3" fill="none" stroke="black" stroke-width="5" />
<circle cx="3.28325e-307" cy="-3.30966e-294" r="3" fill="none" stroke="black" stroke-width="5" />
<line x1="3.01208e-307" y1="2.20965e-307" x2="3.28325e-307" y2="-3.30966e-294" stroke="black" />
<circle cx="3.01208e-307" cy="2.20965e-307" r="3" fill="none" stroke="black" stroke-width="5" />
<circle cx="3.28325e-307" cy="-3.30966e-294" r="3" fill="none" stroke="black" stroke-width="5" />
<line x1="3.01208e-307" y1="2.20965e-307" x2="3.28325e-307" y2="-3.30966e-294" stroke="black" />
<circle cx="3.01208e-307" cy="2.20965e-307" r="3" fill="none" stroke="black" stroke-width="5" />
<circle cx="3.28325e-307" cy="-3.30966e-294" r="3" fill="none" stroke="black" stroke-width="5" />


</svg>
